<svg width="248" height="108" viewBox="0 0 248 108" fill="none" xmlns="http://www.w3.org/2000/svg">
<path fill-rule="evenodd" clip-rule="evenodd" d="M40.7624 2.43566C46.4786 -0.811886 53.5214 -0.811885 59.2376 2.43566L90.7624 20.3457C96.4786 23.5932 100 29.5949 100 36.09V71.91C100 78.4051 96.4786 84.4068 90.7624 87.6543L59.2376 105.564C53.5214 108.812 46.4786 108.812 40.7624 105.564L9.2376 87.6543C3.52135 84.4068 0 78.4051 0 71.91V36.09C0 29.5949 3.52136 23.5932 9.23761 20.3457L40.7624 2.43566ZM54.5969 21.1714C51.7523 19.5516 48.2477 19.5516 45.4031 21.1714L23.6445 33.5615C20.7999 35.1812 19.0476 38.1747 19.0476 41.4143V66.1944C19.0476 69.434 20.7999 72.4275 23.6445 74.0473L45.4031 86.4374C48.2477 88.0571 51.7523 88.0571 54.5969 86.4374L76.3555 74.0473C79.2001 72.4275 80.9524 69.434 80.9524 66.1944V41.4143C80.9524 38.1747 79.2001 35.1812 76.3555 33.5615L54.5969 21.1714Z" fill="#10222F"/>
<path d="M113.23 62.1973C113.529 66.5742 117.221 69.4219 122.758 69.4219C128.436 69.4219 132.127 66.4863 132.127 61.793C132.127 58.207 130.035 56.0977 124.744 54.9375L121.932 54.3223C118.469 53.5664 117.115 52.1953 117.115 50.1914C117.115 47.6074 119.559 46.0605 122.723 46.0605C126.027 46.0605 128.225 47.7656 128.506 50.543H131.67C131.529 46.2363 127.873 43.2129 122.811 43.2129C117.555 43.2129 113.863 46.1484 113.863 50.332C113.863 53.9355 116.061 56.2383 121.141 57.3457L123.953 57.9609C127.469 58.7344 128.875 60.1406 128.875 62.2676C128.875 64.7637 126.379 66.5742 122.934 66.5742C119.295 66.5742 116.764 64.9219 116.395 62.1973H113.23Z" fill="#606368"/>
<path d="M142.691 53.0566C145.574 53.0566 147.49 55.2363 147.561 58.2949H137.629C137.822 55.2539 139.826 53.0566 142.691 53.0566ZM147.49 63.7617C146.98 65.4844 145.275 66.6621 142.955 66.6621C139.668 66.6621 137.611 64.3594 137.611 60.8613V60.6855H150.725V59.5254C150.725 53.9883 147.684 50.4023 142.744 50.4023C137.699 50.4023 134.465 54.252 134.465 59.9297C134.465 65.6777 137.646 69.3164 142.885 69.3164C146.875 69.3164 149.969 66.9609 150.496 63.7617H147.49Z" fill="#606368"/>
<path d="M153.818 69H156.877V57.5391C156.877 55.0078 158.635 53.1094 161.061 53.1094C163.328 53.1094 164.805 54.5508 164.805 56.748V69H167.863V57.3809C167.863 54.9023 169.568 53.1094 171.994 53.1094C174.402 53.1094 175.791 54.5859 175.791 57.082V69H178.85V56.3789C178.85 52.7578 176.512 50.4023 172.891 50.4023C170.324 50.4023 168.18 51.7031 167.16 53.8828H167.09C166.299 51.668 164.453 50.4023 161.957 50.4023C159.496 50.4023 157.633 51.7031 156.771 53.6367H156.701V50.7188H153.818V69Z" fill="#606368"/>
<path d="M190.188 66.4512C187.041 66.4512 184.984 63.8848 184.984 59.7891C184.984 55.6934 187.041 53.0918 190.188 53.0918C193.369 53.0918 195.496 55.7637 195.496 59.7891C195.496 63.8145 193.369 66.4512 190.188 66.4512ZM190.293 75.8906C195.338 75.8906 198.555 72.9902 198.555 68.6309V50.7188H195.637V53.7949H195.584C194.371 51.668 192.227 50.4023 189.643 50.4023C184.914 50.4023 181.855 54.0586 181.855 59.7891C181.855 65.4668 184.914 69.1406 189.572 69.1406C192.139 69.1406 194.301 67.8398 195.426 65.8535H195.496V68.7363C195.496 71.4609 193.58 73.2891 190.416 73.2891C188.131 73.2891 186.32 72.1816 185.723 70.5117H182.576C183.086 73.623 186.268 75.8906 190.293 75.8906Z" fill="#606368"/>
<path d="M202.545 69H205.604V57.6094C205.604 55.0254 207.15 53.3203 209.523 53.3203C210.262 53.3203 210.912 53.4082 211.158 53.4961V50.5254C210.912 50.4902 210.455 50.4023 209.928 50.4023C207.783 50.4023 206.096 51.6855 205.498 53.707H205.428V50.7188H202.545V69Z" fill="#606368"/>
<path d="M220.105 53.0566C222.988 53.0566 224.904 55.2363 224.975 58.2949H215.043C215.236 55.2539 217.24 53.0566 220.105 53.0566ZM224.904 63.7617C224.395 65.4844 222.689 66.6621 220.369 66.6621C217.082 66.6621 215.025 64.3594 215.025 60.8613V60.6855H228.139V59.5254C228.139 53.9883 225.098 50.4023 220.158 50.4023C215.113 50.4023 211.879 54.252 211.879 59.9297C211.879 65.6777 215.061 69.3164 220.299 69.3164C224.289 69.3164 227.383 66.9609 227.91 63.7617H224.904Z" fill="#606368"/>
<path d="M240.109 50.4023C237.455 50.4023 235.328 51.7559 234.203 53.8125H234.133V50.7188H231.232V75.0996H234.291V66.0293H234.361C235.451 68.0332 237.561 69.3164 240.18 69.3164C244.785 69.3164 247.932 65.5898 247.932 59.8594C247.932 54.1289 244.768 50.4023 240.109 50.4023ZM239.512 66.627C236.383 66.627 234.273 63.9375 234.273 59.8594C234.273 55.7988 236.383 53.0918 239.512 53.0918C242.764 53.0918 244.803 55.7285 244.803 59.8594C244.803 64.0078 242.764 66.627 239.512 66.627Z" fill="#606368"/>
</svg>
