<svg width="347" height="195" viewBox="0 0 347 195" fill="none" xmlns="http://www.w3.org/2000/svg">
<mask id="mask0" mask-type="alpha" maskUnits="userSpaceOnUse" x="50" y="0" width="246" height="95">
<path fill-rule="evenodd" clip-rule="evenodd" d="M97.8022 0C71.829 0 50.7734 21.0942 50.7734 47.1151C50.7734 73.1361 71.829 94.2302 97.8022 94.2302C113.198 94.2302 126.866 86.8185 135.445 75.3623C144.024 86.8185 157.692 94.2302 173.088 94.2302C188.454 94.2302 202.099 86.8469 210.681 75.4282C219.263 86.8469 232.908 94.2302 248.275 94.2302C274.248 94.2302 295.304 73.1361 295.304 47.1151C295.304 21.0942 274.248 0 248.275 0C232.908 0 219.263 7.38329 210.681 18.802C202.099 7.38329 188.454 0 173.088 0C157.692 0 144.024 7.41171 135.445 18.8679C126.866 7.41171 113.198 0 97.8022 0ZM69.585 47.1151C69.585 62.7277 82.2183 75.3842 97.8022 75.3842C113.386 75.3842 126.02 62.7277 126.02 47.1151C126.02 31.5025 113.386 18.846 97.8022 18.846C82.2183 18.846 69.585 31.5025 69.585 47.1151ZM220.095 48.5768C220.109 48.0914 220.117 47.6041 220.117 47.1151C220.117 46.6261 220.109 46.1389 220.095 45.6535C220.854 30.7202 233.18 18.846 248.275 18.846C263.859 18.846 276.492 31.5025 276.492 47.1151C276.492 62.7277 263.859 75.3842 248.275 75.3842C233.18 75.3842 220.854 63.51 220.095 48.5768ZM201.268 45.6535C200.509 30.7202 188.183 18.846 173.088 18.846C157.504 18.846 144.871 31.5025 144.871 47.1151C144.871 62.7277 157.504 75.3842 173.088 75.3842C188.183 75.3842 200.509 63.51 201.268 48.5768C201.253 48.0914 201.246 47.6041 201.246 47.1151C201.246 46.6261 201.253 46.1389 201.268 45.6535Z" fill="#1E961B"/>
</mask>
<g mask="url(#mask0)">
<g filter="url(#filter0_d)">
<path fill-rule="evenodd" clip-rule="evenodd" d="M69.585 47.1151C69.585 62.7277 82.2183 75.3842 97.8022 75.3842C113.386 75.3842 126.02 62.7277 126.02 47.1151C126.02 31.5025 113.386 18.846 97.8022 18.846C82.2183 18.846 69.585 31.5025 69.585 47.1151ZM97.8022 0C71.829 0 50.7734 21.0942 50.7734 47.1151C50.7734 73.1361 71.829 94.2302 97.8022 94.2302C123.776 94.2302 144.831 73.1361 144.831 47.1151C144.831 21.0942 123.776 0 97.8022 0Z" fill="url(#paint0_linear)"/>
</g>
<path fill-rule="evenodd" clip-rule="evenodd" d="M220.058 47.1151C220.058 62.7277 232.691 75.3842 248.275 75.3842C263.859 75.3842 276.492 62.7277 276.492 47.1151C276.492 31.5025 263.859 18.846 248.275 18.846C232.691 18.846 220.058 31.5025 220.058 47.1151ZM248.275 0C222.302 0 201.246 21.0942 201.246 47.1151C201.246 73.1361 222.302 94.2302 248.275 94.2302C274.248 94.2302 295.304 73.1361 295.304 47.1151C295.304 21.0942 274.248 0 248.275 0Z" fill="url(#paint1_linear)"/>
<path fill-rule="evenodd" clip-rule="evenodd" d="M144.871 47.1151C144.871 62.7277 157.504 75.3842 173.088 75.3842C188.672 75.3842 201.306 62.7277 201.306 47.1151C201.306 31.5025 188.672 18.846 173.088 18.846C157.504 18.846 144.871 31.5025 144.871 47.1151ZM173.088 0C147.115 0 126.06 21.0942 126.06 47.1151C126.06 73.1361 147.115 94.2302 173.088 94.2302C199.062 94.2302 220.117 73.1361 220.117 47.1151C220.117 21.0942 199.062 0 173.088 0Z" fill="#1E961B"/>
<path d="M173.03 75.3856C157.446 75.3856 144.813 62.7294 144.813 47.1171H144.835C144.835 21.0961 123.779 0.00195313 97.8061 0.00195312C71.8329 0.00195312 50.7773 21.0961 50.7773 47.1171H69.5889C69.5889 31.5045 82.2222 18.848 97.8061 18.848C113.39 18.848 126.023 31.5042 126.023 47.1165H126.001C126.001 73.1375 147.057 94.2316 173.03 94.2316C199.003 94.2316 220.059 73.1378 220.059 47.1171H220.061C220.061 31.5045 232.694 18.848 248.278 18.848C263.862 18.848 276.495 31.5045 276.495 47.1171H295.307C295.307 21.0961 274.251 0.00195313 248.278 0.00195312C222.305 0.00195312 201.25 21.0958 201.249 47.1165H201.247C201.247 62.7291 188.614 75.3856 173.03 75.3856Z" fill="#F2F8FF"/>
<path d="M173.03 75.3856C157.446 75.3856 144.813 62.7294 144.813 47.1171H144.835C144.835 21.0961 123.779 0.00195313 97.8061 0.00195312C71.8329 0.00195312 50.7773 21.0961 50.7773 47.1171H69.5889C69.5889 31.5045 82.2222 18.848 97.8061 18.848C113.39 18.848 126.023 31.5042 126.023 47.1165H126.001C126.001 73.1375 147.057 94.2316 173.03 94.2316C199.003 94.2316 220.059 73.1378 220.059 47.1171H220.061C220.061 31.5045 232.694 18.848 248.278 18.848C263.862 18.848 276.495 31.5045 276.495 47.1171H295.307C295.307 21.0961 274.251 0.00195313 248.278 0.00195312C222.305 0.00195312 201.25 21.0958 201.249 47.1165H201.247C201.247 62.7291 188.614 75.3856 173.03 75.3856Z" fill="#2ED02A"/>
</g>
<path d="M4.47562 159.122C2.05459 159.122 0.090502 161.202 0.794381 163.519C3.45167 172.264 12.1987 177.728 24.4792 177.728C39.0674 177.728 48.5519 170.168 48.5519 158.081C48.5519 148.846 43.1773 143.413 29.5828 140.426L22.3565 138.841C13.459 136.895 9.98137 133.363 9.98137 128.203C9.98137 121.548 16.2592 117.564 24.3889 117.564C31.3095 117.564 36.3399 120.481 38.3551 125.433C39.1672 127.429 40.8876 129.108 43.042 129.108C45.4133 129.108 47.3649 127.117 46.7554 124.825C44.4254 116.064 35.8736 110.23 24.6147 110.23C11.1105 110.23 1.62592 117.791 1.62592 128.565C1.62592 137.845 7.2715 143.776 20.3241 146.628L27.5504 148.212C36.5833 150.204 40.1965 153.826 40.1965 159.303C40.1965 165.732 33.7831 170.394 24.9308 170.394C17.2543 170.394 11.4961 167.525 9.15652 162.614C8.25646 160.725 6.56835 159.122 4.47562 159.122Z" fill="#0974D7"/>
<path d="M4.47562 159.122C2.05459 159.122 0.090502 161.202 0.794381 163.519C3.45167 172.264 12.1987 177.728 24.4792 177.728C39.0674 177.728 48.5519 170.168 48.5519 158.081C48.5519 148.846 43.1773 143.413 29.5828 140.426L22.3565 138.841C13.459 136.895 9.98137 133.363 9.98137 128.203C9.98137 121.548 16.2592 117.564 24.3889 117.564C31.3095 117.564 36.3399 120.481 38.3551 125.433C39.1672 127.429 40.8876 129.108 43.042 129.108C45.4133 129.108 47.3649 127.117 46.7554 124.825C44.4254 116.064 35.8736 110.23 24.6147 110.23C11.1105 110.23 1.62592 117.791 1.62592 128.565C1.62592 137.845 7.2715 143.776 20.3241 146.628L27.5504 148.212C36.5833 150.204 40.1965 153.826 40.1965 159.303C40.1965 165.732 33.7831 170.394 24.9308 170.394C17.2543 170.394 11.4961 167.525 9.15652 162.614C8.25646 160.725 6.56835 159.122 4.47562 159.122Z" fill="#F2F8FF"/>
<path d="M4.47562 159.122C2.05459 159.122 0.090502 161.202 0.794381 163.519C3.45167 172.264 12.1987 177.728 24.4792 177.728C39.0674 177.728 48.5519 170.168 48.5519 158.081C48.5519 148.846 43.1773 143.413 29.5828 140.426L22.3565 138.841C13.459 136.895 9.98137 133.363 9.98137 128.203C9.98137 121.548 16.2592 117.564 24.3889 117.564C31.3095 117.564 36.3399 120.481 38.3551 125.433C39.1672 127.429 40.8876 129.108 43.042 129.108C45.4133 129.108 47.3649 127.117 46.7554 124.825C44.4254 116.064 35.8736 110.23 24.6147 110.23C11.1105 110.23 1.62592 117.791 1.62592 128.565C1.62592 137.845 7.2715 143.776 20.3241 146.628L27.5504 148.212C36.5833 150.204 40.1965 153.826 40.1965 159.303C40.1965 165.732 33.7831 170.394 24.9308 170.394C17.2543 170.394 11.4961 167.525 9.15652 162.614C8.25646 160.725 6.56835 159.122 4.47562 159.122Z" fill="#29343D"/>
<path d="M75.6958 135.582C83.1028 135.582 88.0258 141.195 88.2064 149.072H62.6884C63.1852 141.24 68.334 135.582 75.6958 135.582ZM91.024 163.151C89.2461 163.151 87.7493 164.383 86.7397 165.846C84.7221 168.77 81.0299 170.621 76.3733 170.621C67.9275 170.621 62.6433 164.69 62.6433 155.682V155.229H96.336V152.241C96.336 137.981 88.5226 128.746 75.8313 128.746C62.8691 128.746 54.5588 138.66 54.5588 153.282C54.5588 168.086 62.7336 177.457 76.1926 177.457C84.4806 177.457 91.2633 173.492 94.274 167.62C95.4034 165.418 93.4993 163.151 91.024 163.151Z" fill="#0974D7"/>
<path d="M75.6958 135.582C83.1028 135.582 88.0258 141.195 88.2064 149.072H62.6884C63.1852 141.24 68.334 135.582 75.6958 135.582ZM91.024 163.151C89.2461 163.151 87.7493 164.383 86.7397 165.846C84.7221 168.77 81.0299 170.621 76.3733 170.621C67.9275 170.621 62.6433 164.69 62.6433 155.682V155.229H96.336V152.241C96.336 137.981 88.5226 128.746 75.8313 128.746C62.8691 128.746 54.5588 138.66 54.5588 153.282C54.5588 168.086 62.7336 177.457 76.1926 177.457C84.4806 177.457 91.2633 173.492 94.274 167.62C95.4034 165.418 93.4993 163.151 91.024 163.151Z" fill="#F2F8FF"/>
<path d="M75.6958 135.582C83.1028 135.582 88.0258 141.195 88.2064 149.072H62.6884C63.1852 141.24 68.334 135.582 75.6958 135.582ZM91.024 163.151C89.2461 163.151 87.7493 164.383 86.7397 165.846C84.7221 168.77 81.0299 170.621 76.3733 170.621C67.9275 170.621 62.6433 164.69 62.6433 155.682V155.229H96.336V152.241C96.336 137.981 88.5226 128.746 75.8313 128.746C62.8691 128.746 54.5588 138.66 54.5588 153.282C54.5588 168.086 62.7336 177.457 76.1926 177.457C84.4806 177.457 91.2633 173.492 94.274 167.62C95.4034 165.418 93.4993 163.151 91.024 163.151Z" fill="#29343D"/>
<path d="M104.285 172.712C104.285 174.883 106.044 176.642 108.214 176.642C110.384 176.642 112.144 174.883 112.144 172.712V147.126C112.144 140.607 116.66 135.718 122.893 135.718C128.719 135.718 132.513 139.43 132.513 145.088V172.712C132.513 174.883 134.272 176.642 136.442 176.642C138.612 176.642 140.372 174.883 140.372 172.712V146.718C140.372 140.335 144.752 135.718 150.985 135.718C157.173 135.718 160.741 139.52 160.741 145.949V172.712C160.741 174.883 162.5 176.642 164.67 176.642C166.84 176.642 168.599 174.883 168.599 172.712V144.138C168.599 134.812 162.592 128.746 153.289 128.746C146.695 128.746 141.184 132.096 138.565 137.709H138.384C136.352 132.005 131.61 128.746 125.196 128.746C118.873 128.746 114.086 132.096 111.873 137.076H111.692V133.264C111.692 131.219 110.034 129.561 107.989 129.561C105.943 129.561 104.285 131.219 104.285 133.264V172.712Z" fill="#0974D7"/>
<path d="M104.285 172.712C104.285 174.883 106.044 176.642 108.214 176.642C110.384 176.642 112.144 174.883 112.144 172.712V147.126C112.144 140.607 116.66 135.718 122.893 135.718C128.719 135.718 132.513 139.43 132.513 145.088V172.712C132.513 174.883 134.272 176.642 136.442 176.642C138.612 176.642 140.372 174.883 140.372 172.712V146.718C140.372 140.335 144.752 135.718 150.985 135.718C157.173 135.718 160.741 139.52 160.741 145.949V172.712C160.741 174.883 162.5 176.642 164.67 176.642C166.84 176.642 168.599 174.883 168.599 172.712V144.138C168.599 134.812 162.592 128.746 153.289 128.746C146.695 128.746 141.184 132.096 138.565 137.709H138.384C136.352 132.005 131.61 128.746 125.196 128.746C118.873 128.746 114.086 132.096 111.873 137.076H111.692V133.264C111.692 131.219 110.034 129.561 107.989 129.561C105.943 129.561 104.285 131.219 104.285 133.264V172.712Z" fill="#F2F8FF"/>
<path d="M104.285 172.712C104.285 174.883 106.044 176.642 108.214 176.642C110.384 176.642 112.144 174.883 112.144 172.712V147.126C112.144 140.607 116.66 135.718 122.893 135.718C128.719 135.718 132.513 139.43 132.513 145.088V172.712C132.513 174.883 134.272 176.642 136.442 176.642C138.612 176.642 140.372 174.883 140.372 172.712V146.718C140.372 140.335 144.752 135.718 150.985 135.718C157.173 135.718 160.741 139.52 160.741 145.949V172.712C160.741 174.883 162.5 176.642 164.67 176.642C166.84 176.642 168.599 174.883 168.599 172.712V144.138C168.599 134.812 162.592 128.746 153.289 128.746C146.695 128.746 141.184 132.096 138.565 137.709H138.384C136.352 132.005 131.61 128.746 125.196 128.746C118.873 128.746 114.086 132.096 111.873 137.076H111.692V133.264C111.692 131.219 110.034 129.561 107.989 129.561C105.943 129.561 104.285 131.219 104.285 133.264V172.712Z" fill="#29343D"/>
<path d="M197.731 170.078C189.646 170.078 184.362 163.468 184.362 152.92C184.362 142.372 189.646 135.672 197.731 135.672C205.905 135.672 211.37 142.553 211.37 152.92C211.37 163.287 205.905 170.078 197.731 170.078ZM198.001 194.388C210.964 194.388 219.229 186.918 219.229 175.691V133.309C219.229 131.239 217.551 129.561 215.48 129.561C213.41 129.561 211.732 131.239 211.732 133.309V137.483H211.596C208.48 132.005 202.97 128.746 196.33 128.746C184.181 128.746 176.323 138.162 176.323 152.92C176.323 167.542 184.181 177.004 196.15 177.004C202.744 177.004 208.299 173.654 211.19 168.538H211.37V175.963C211.37 182.98 206.447 187.688 198.318 187.688C193.75 187.688 189.921 185.962 187.722 183.171C186.599 181.744 185.046 180.535 183.23 180.535C180.581 180.535 178.548 182.973 179.869 185.27C183.02 190.747 189.835 194.388 198.001 194.388Z" fill="#0974D7"/>
<path d="M197.731 170.078C189.646 170.078 184.362 163.468 184.362 152.92C184.362 142.372 189.646 135.672 197.731 135.672C205.905 135.672 211.37 142.553 211.37 152.92C211.37 163.287 205.905 170.078 197.731 170.078ZM198.001 194.388C210.964 194.388 219.229 186.918 219.229 175.691V133.309C219.229 131.239 217.551 129.561 215.48 129.561C213.41 129.561 211.732 131.239 211.732 133.309V137.483H211.596C208.48 132.005 202.97 128.746 196.33 128.746C184.181 128.746 176.323 138.162 176.323 152.92C176.323 167.542 184.181 177.004 196.15 177.004C202.744 177.004 208.299 173.654 211.19 168.538H211.37V175.963C211.37 182.98 206.447 187.688 198.318 187.688C193.75 187.688 189.921 185.962 187.722 183.171C186.599 181.744 185.046 180.535 183.23 180.535C180.581 180.535 178.548 182.973 179.869 185.27C183.02 190.747 189.835 194.388 198.001 194.388Z" fill="#F2F8FF"/>
<path d="M197.731 170.078C189.646 170.078 184.362 163.468 184.362 152.92C184.362 142.372 189.646 135.672 197.731 135.672C205.905 135.672 211.37 142.553 211.37 152.92C211.37 163.287 205.905 170.078 197.731 170.078ZM198.001 194.388C210.964 194.388 219.229 186.918 219.229 175.691V133.309C219.229 131.239 217.551 129.561 215.48 129.561C213.41 129.561 211.732 131.239 211.732 133.309V137.483H211.596C208.48 132.005 202.97 128.746 196.33 128.746C184.181 128.746 176.323 138.162 176.323 152.92C176.323 167.542 184.181 177.004 196.15 177.004C202.744 177.004 208.299 173.654 211.19 168.538H211.37V175.963C211.37 182.98 206.447 187.688 198.318 187.688C193.75 187.688 189.921 185.962 187.722 183.171C186.599 181.744 185.046 180.535 183.23 180.535C180.581 180.535 178.548 182.973 179.869 185.27C183.02 190.747 189.835 194.388 198.001 194.388Z" fill="#29343D"/>
<path d="M229.481 172.712C229.481 174.883 231.24 176.642 233.411 176.642C235.581 176.642 237.34 174.883 237.34 172.712V147.307C237.34 140.652 241.314 136.261 247.412 136.261C249.476 136.261 251.612 134.54 251.612 132.476V131.963C251.612 130.299 250.395 128.787 248.731 128.749C248.639 128.747 248.545 128.746 248.45 128.746C242.94 128.746 238.604 132.051 237.069 137.257H236.888V133.264C236.888 131.219 235.23 129.561 233.185 129.561C231.139 129.561 229.481 131.219 229.481 133.264V172.712Z" fill="#0974D7"/>
<path d="M229.481 172.712C229.481 174.883 231.24 176.642 233.411 176.642C235.581 176.642 237.34 174.883 237.34 172.712V147.307C237.34 140.652 241.314 136.261 247.412 136.261C249.476 136.261 251.612 134.54 251.612 132.476V131.963C251.612 130.299 250.395 128.787 248.731 128.749C248.639 128.747 248.545 128.746 248.45 128.746C242.94 128.746 238.604 132.051 237.069 137.257H236.888V133.264C236.888 131.219 235.23 129.561 233.185 129.561C231.139 129.561 229.481 131.219 229.481 133.264V172.712Z" fill="#F2F8FF"/>
<path d="M229.481 172.712C229.481 174.883 231.24 176.642 233.411 176.642C235.581 176.642 237.34 174.883 237.34 172.712V147.307C237.34 140.652 241.314 136.261 247.412 136.261C249.476 136.261 251.612 134.54 251.612 132.476V131.963C251.612 130.299 250.395 128.787 248.731 128.749C248.639 128.747 248.545 128.746 248.45 128.746C242.94 128.746 238.604 132.051 237.069 137.257H236.888V133.264C236.888 131.219 235.23 129.561 233.185 129.561C231.139 129.561 229.481 131.219 229.481 133.264V172.712Z" fill="#29343D"/>
<path d="M274.601 135.582C282.008 135.582 286.931 141.195 287.111 149.072H261.593C262.09 141.24 267.239 135.582 274.601 135.582ZM289.929 163.151C288.151 163.151 286.654 164.383 285.644 165.846C283.627 168.77 279.935 170.621 275.278 170.621C266.832 170.621 261.548 164.69 261.548 155.682V155.229H295.241V152.241C295.241 137.981 287.427 128.746 274.736 128.746C261.774 128.746 253.464 138.66 253.464 153.282C253.464 168.086 261.638 177.457 275.097 177.457C283.385 177.457 290.168 173.492 293.179 167.62C294.308 165.418 292.404 163.151 289.929 163.151Z" fill="#0974D7"/>
<path d="M274.601 135.582C282.008 135.582 286.931 141.195 287.111 149.072H261.593C262.09 141.24 267.239 135.582 274.601 135.582ZM289.929 163.151C288.151 163.151 286.654 164.383 285.644 165.846C283.627 168.77 279.935 170.621 275.278 170.621C266.832 170.621 261.548 164.69 261.548 155.682V155.229H295.241V152.241C295.241 137.981 287.427 128.746 274.736 128.746C261.774 128.746 253.464 138.66 253.464 153.282C253.464 168.086 261.638 177.457 275.097 177.457C283.385 177.457 290.168 173.492 293.179 167.62C294.308 165.418 292.404 163.151 289.929 163.151Z" fill="#F2F8FF"/>
<path d="M274.601 135.582C282.008 135.582 286.931 141.195 287.111 149.072H261.593C262.09 141.24 267.239 135.582 274.601 135.582ZM289.929 163.151C288.151 163.151 286.654 164.383 285.644 165.846C283.627 168.77 279.935 170.621 275.278 170.621C266.832 170.621 261.548 164.69 261.548 155.682V155.229H295.241V152.241C295.241 137.981 287.427 128.746 274.736 128.746C261.774 128.746 253.464 138.66 253.464 153.282C253.464 168.086 261.638 177.457 275.097 177.457C283.385 177.457 290.168 173.492 293.179 167.62C294.308 165.418 292.404 163.151 289.929 163.151Z" fill="#29343D"/>
<path d="M325.998 128.746C319.178 128.746 313.713 132.232 310.823 137.528H310.642V133.287C310.642 131.229 308.974 129.561 306.916 129.561C304.858 129.561 303.19 131.229 303.19 133.287V188.421C303.19 190.591 304.949 192.35 307.119 192.35C309.289 192.35 311.048 190.591 311.048 188.421V168.991H311.229C314.029 174.152 319.449 177.457 326.179 177.457C338.012 177.457 346.096 167.859 346.096 153.101C346.096 138.343 337.967 128.746 325.998 128.746ZM324.462 170.53C316.423 170.53 311.003 163.604 311.003 153.101C311.003 142.644 316.423 135.672 324.462 135.672C332.818 135.672 338.057 142.463 338.057 153.101C338.057 163.785 332.818 170.53 324.462 170.53Z" fill="#0974D7"/>
<path d="M325.998 128.746C319.178 128.746 313.713 132.232 310.823 137.528H310.642V133.287C310.642 131.229 308.974 129.561 306.916 129.561C304.858 129.561 303.19 131.229 303.19 133.287V188.421C303.19 190.591 304.949 192.35 307.119 192.35C309.289 192.35 311.048 190.591 311.048 188.421V168.991H311.229C314.029 174.152 319.449 177.457 326.179 177.457C338.012 177.457 346.096 167.859 346.096 153.101C346.096 138.343 337.967 128.746 325.998 128.746ZM324.462 170.53C316.423 170.53 311.003 163.604 311.003 153.101C311.003 142.644 316.423 135.672 324.462 135.672C332.818 135.672 338.057 142.463 338.057 153.101C338.057 163.785 332.818 170.53 324.462 170.53Z" fill="#F2F8FF"/>
<path d="M325.998 128.746C319.178 128.746 313.713 132.232 310.823 137.528H310.642V133.287C310.642 131.229 308.974 129.561 306.916 129.561C304.858 129.561 303.19 131.229 303.19 133.287V188.421C303.19 190.591 304.949 192.35 307.119 192.35C309.289 192.35 311.048 190.591 311.048 188.421V168.991H311.229C314.029 174.152 319.449 177.457 326.179 177.457C338.012 177.457 346.096 167.859 346.096 153.101C346.096 138.343 337.967 128.746 325.998 128.746ZM324.462 170.53C316.423 170.53 311.003 163.604 311.003 153.101C311.003 142.644 316.423 135.672 324.462 135.672C332.818 135.672 338.057 142.463 338.057 153.101C338.057 163.785 332.818 170.53 324.462 170.53Z" fill="#29343D"/>
<defs>
<filter id="filter0_d" x="42.7734" y="-4" width="102.058" height="102.23" filterUnits="userSpaceOnUse" color-interpolation-filters="sRGB">
<feFlood flood-opacity="0" result="BackgroundImageFix"/>
<feColorMatrix in="SourceAlpha" type="matrix" values="0 0 0 0 0 0 0 0 0 0 0 0 0 0 0 0 0 0 127 0"/>
<feOffset dx="-4"/>
<feGaussianBlur stdDeviation="2"/>
<feColorMatrix type="matrix" values="0 0 0 0 0 0 0 0 0 0 0 0 0 0 0 0 0 0 0.23 0"/>
<feBlend mode="normal" in2="BackgroundImageFix" result="effect1_dropShadow"/>
<feBlend mode="normal" in="SourceGraphic" in2="effect1_dropShadow" result="shape"/>
</filter>
<linearGradient id="paint0_linear" x1="75.6097" y1="19.9664" x2="164.971" y2="58.1947" gradientUnits="userSpaceOnUse">
<stop offset="0.285554" stop-color="#2ED02A"/>
<stop offset="0.572917" stop-color="#1E961B"/>
</linearGradient>
<linearGradient id="paint1_linear" x1="291.1" y1="28.2451" x2="198.573" y2="64.5255" gradientUnits="userSpaceOnUse">
<stop offset="0.285554" stop-color="#2ED02A"/>
<stop offset="0.762026" stop-color="#1E961B"/>
</linearGradient>
</defs>
</svg>
