<svg width="250" height="108" viewBox="0 0 250 108" fill="none" xmlns="http://www.w3.org/2000/svg">
<path d="M40.7624 2.43566C46.4786 -0.811886 53.5214 -0.811885 59.2376 2.43566L90.7624 20.3457C96.4786 23.5932 100 29.5949 100 36.09V71.91C100 78.4051 96.4786 84.4068 90.7624 87.6543L59.2376 105.564C53.5214 108.812 46.4786 108.812 40.7624 105.564L9.2376 87.6543C3.52135 84.4068 0 78.4051 0 71.91V36.09C0 29.5949 3.52136 23.5932 9.23761 20.3457L40.7624 2.43566Z" fill="#1B2F3D"/>
<path fill-rule="evenodd" clip-rule="evenodd" d="M88.9917 22.8598L57.5087 4.90538C52.7395 2.18559 46.8637 2.18559 42.0945 4.90538L10.6115 22.8598C5.8423 25.5796 2.90438 30.606 2.90438 36.0456V71.9545C2.90438 77.3941 5.8423 82.4204 10.6115 85.1402L42.0945 103.095C46.8637 105.814 52.7395 105.814 57.5087 103.095L88.9917 85.1402C93.7609 82.4204 96.6988 77.3941 96.6988 71.9545V36.0456C96.6988 30.606 93.7609 25.5796 88.9917 22.8598ZM57.9688 4.11817C52.9149 1.236 46.6883 1.236 41.6344 4.11817L10.1513 22.0726C5.09745 24.9548 1.98413 30.2812 1.98413 36.0456V71.9545C1.98413 77.7188 5.09745 83.0453 10.1513 85.9274L41.6344 103.882C46.6883 106.764 52.9149 106.764 57.9688 103.882L89.4519 85.9274C94.5057 83.0453 97.619 77.7188 97.619 71.9545V36.0456C97.619 30.2812 94.5057 24.9548 89.4519 22.0726L57.9688 4.11817Z" fill="#1B2F3D"/>
<path d="M45.1928 17.2639C48.0447 15.6367 51.5585 15.6367 54.4104 17.2639L79.5182 31.5896C82.3701 33.2169 84.127 36.2241 84.127 39.4786V68.1301C84.127 71.3845 82.3701 74.3918 79.5182 76.019L54.4104 90.3448C51.5585 91.972 48.0447 91.972 45.1928 90.3448L20.085 76.019C17.2331 74.3918 15.4762 71.3845 15.4762 68.1301V39.4786C15.4762 36.2241 17.2331 33.2169 20.085 31.5896L45.1928 17.2639Z" fill="#10222F"/>
<path fill-rule="evenodd" clip-rule="evenodd" d="M54.7196 17.2869L79.8042 31.5268C82.7247 33.1847 84.5238 36.2486 84.5238 39.5644V68.0442C84.5238 71.36 82.7247 74.424 79.8042 76.0819L54.7196 90.3218C51.7991 91.9797 48.2009 91.9797 45.2804 90.3218L20.1958 76.0819C17.2753 74.424 15.4762 71.36 15.4762 68.0442V39.5644C15.4762 36.2486 17.2753 33.1847 20.1958 31.5268L45.2804 17.2869C48.2009 15.629 51.7991 15.629 54.7196 17.2869ZM54.6045 17.4829C51.7552 15.8655 48.2448 15.8655 45.3955 17.4829L20.3109 31.7228C17.4617 33.3403 15.7064 36.3295 15.7064 39.5644V68.0442C15.7064 71.2792 17.4617 74.2684 20.3109 75.8858L45.3955 90.1257C48.2448 91.7432 51.7552 91.7432 54.6045 90.1257L79.6891 75.8858C82.5384 74.2684 84.2936 71.2792 84.2936 68.0442V39.5644C84.2936 36.3295 82.5384 33.3403 79.6891 31.7228L54.6045 17.4829Z" fill="#1B2F3D"/>
<path d="M45.4031 21.1714C48.2477 19.5516 51.7523 19.5516 54.5969 21.1714L76.3555 33.5615C79.2001 35.1812 80.9524 38.1747 80.9524 41.4143V66.1944C80.9524 69.434 79.2001 72.4275 76.3555 74.0473L54.5969 86.4374C51.7523 88.0571 48.2477 88.0571 45.4031 86.4374L23.6445 74.0473C20.7999 72.4275 19.0476 69.434 19.0476 66.1944V41.4143C19.0476 38.1747 20.7999 35.1812 23.6445 33.5615L45.4031 21.1714Z" fill="#B9FDFE"/>
<path d="M45.4031 21.1714C48.2477 19.5516 51.7523 19.5516 54.5969 21.1714L76.3555 33.5615C79.2001 35.1812 80.9524 38.1747 80.9524 41.4143V66.1944C80.9524 69.434 79.2001 72.4275 76.3555 74.0473L54.5969 86.4374C51.7523 88.0571 48.2477 88.0571 45.4031 86.4374L23.6445 74.0473C20.7999 72.4275 19.0476 69.434 19.0476 66.1944V41.4143C19.0476 38.1747 20.7999 35.1812 23.6445 33.5615L45.4031 21.1714Z" fill="white"/>
<g filter="url(#filter0_ii)">
<path fill-rule="evenodd" clip-rule="evenodd" d="M54.737 20.8164L76.6121 33.2663C79.5434 34.9346 81.3492 38.0178 81.3492 41.3544V66.2542C81.3492 69.5908 79.5434 72.674 76.6121 74.3423L54.737 86.7922C51.8057 88.4605 48.1942 88.4605 45.2629 86.7922L23.3878 74.3423C20.4565 72.674 18.6508 69.5908 18.6508 66.2542V41.3544C18.6508 38.0178 20.4565 34.9346 23.3878 33.2663L45.2629 20.8164C48.1942 19.1481 51.8057 19.1481 54.737 20.8164ZM54.6215 21.0137C51.7617 19.3861 48.2383 19.3861 45.3785 21.0137L23.5033 33.4636C20.6435 35.0912 18.8818 38.0992 18.8818 41.3544V66.2542C18.8818 69.5095 20.6435 72.5174 23.5033 74.145L45.3785 86.5949C48.2383 88.2226 51.7617 88.2226 54.6215 86.5949L76.4966 74.145C79.3564 72.5174 81.1181 69.5095 81.1181 66.2542V41.3544C81.1181 38.0992 79.3564 35.0912 76.4966 33.4636L54.6215 21.0137Z" fill="#2F55C5"/>
</g>
<path d="M113.23 62.1973C113.529 66.5742 117.221 69.4219 122.758 69.4219C128.436 69.4219 132.127 66.4863 132.127 61.793C132.127 58.207 130.035 56.0977 124.744 54.9375L121.932 54.3223C118.469 53.5664 117.115 52.1953 117.115 50.1914C117.115 47.6074 119.559 46.0605 122.723 46.0605C126.027 46.0605 128.225 47.7656 128.506 50.543H131.67C131.529 46.2363 127.873 43.2129 122.811 43.2129C117.555 43.2129 113.863 46.1484 113.863 50.332C113.863 53.9355 116.061 56.2383 121.141 57.3457L123.953 57.9609C127.469 58.7344 128.875 60.1406 128.875 62.2676C128.875 64.7637 126.379 66.5742 122.934 66.5742C119.295 66.5742 116.764 64.9219 116.395 62.1973H113.23ZM142.691 53.0566C145.574 53.0566 147.49 55.2363 147.561 58.2949H137.629C137.822 55.2539 139.826 53.0566 142.691 53.0566ZM147.49 63.7617C146.98 65.4844 145.275 66.6621 142.955 66.6621C139.668 66.6621 137.611 64.3594 137.611 60.8613V60.6855H150.725V59.5254C150.725 53.9883 147.684 50.4023 142.744 50.4023C137.699 50.4023 134.465 54.252 134.465 59.9297C134.465 65.6777 137.646 69.3164 142.885 69.3164C146.875 69.3164 149.969 66.9609 150.496 63.7617H147.49ZM153.818 69H156.877V57.5391C156.877 55.0078 158.635 53.1094 161.061 53.1094C163.328 53.1094 164.805 54.5508 164.805 56.748V69H167.863V57.3809C167.863 54.9023 169.568 53.1094 171.994 53.1094C174.402 53.1094 175.791 54.5859 175.791 57.082V69H178.85V56.3789C178.85 52.7578 176.512 50.4023 172.891 50.4023C170.324 50.4023 168.18 51.7031 167.16 53.8828H167.09C166.299 51.668 164.453 50.4023 161.957 50.4023C159.496 50.4023 157.633 51.7031 156.771 53.6367H156.701V50.7188H153.818V69ZM190.188 66.4512C187.041 66.4512 184.984 63.8848 184.984 59.7891C184.984 55.6934 187.041 53.0918 190.188 53.0918C193.369 53.0918 195.496 55.7637 195.496 59.7891C195.496 63.8145 193.369 66.4512 190.188 66.4512ZM190.293 75.8906C195.338 75.8906 198.555 72.9902 198.555 68.6309V50.7188H195.637V53.7949H195.584C194.371 51.668 192.227 50.4023 189.643 50.4023C184.914 50.4023 181.855 54.0586 181.855 59.7891C181.855 65.4668 184.914 69.1406 189.572 69.1406C192.139 69.1406 194.301 67.8398 195.426 65.8535H195.496V68.7363C195.496 71.4609 193.58 73.2891 190.416 73.2891C188.131 73.2891 186.32 72.1816 185.723 70.5117H182.576C183.086 73.623 186.268 75.8906 190.293 75.8906ZM202.545 69H205.604V57.6094C205.604 55.0254 207.15 53.3203 209.523 53.3203C210.262 53.3203 210.912 53.4082 211.158 53.4961V50.5254C210.912 50.4902 210.455 50.4023 209.928 50.4023C207.783 50.4023 206.096 51.6855 205.498 53.707H205.428V50.7188H202.545V69ZM220.105 53.0566C222.988 53.0566 224.904 55.2363 224.975 58.2949H215.043C215.236 55.2539 217.24 53.0566 220.105 53.0566ZM224.904 63.7617C224.395 65.4844 222.689 66.6621 220.369 66.6621C217.082 66.6621 215.025 64.3594 215.025 60.8613V60.6855H228.139V59.5254C228.139 53.9883 225.098 50.4023 220.158 50.4023C215.113 50.4023 211.879 54.252 211.879 59.9297C211.879 65.6777 215.061 69.3164 220.299 69.3164C224.289 69.3164 227.383 66.9609 227.91 63.7617H224.904ZM240.109 50.4023C237.455 50.4023 235.328 51.7559 234.203 53.8125H234.133V50.7188H231.232V75.0996H234.291V66.0293H234.361C235.451 68.0332 237.561 69.3164 240.18 69.3164C244.785 69.3164 247.932 65.5898 247.932 59.8594C247.932 54.1289 244.768 50.4023 240.109 50.4023ZM239.512 66.627C236.383 66.627 234.273 63.9375 234.273 59.8594C234.273 55.7988 236.383 53.0918 239.512 53.0918C242.764 53.0918 244.803 55.7285 244.803 59.8594C244.803 64.0078 242.764 66.627 239.512 66.627Z" fill="#606368"/>
<defs>
<filter id="filter0_ii" x="-21.3492" y="-20.4348" width="142.698" height="148.478" filterUnits="userSpaceOnUse" color-interpolation-filters="sRGB">
<feFlood flood-opacity="0" result="BackgroundImageFix"/>
<feBlend mode="normal" in="SourceGraphic" in2="BackgroundImageFix" result="shape"/>
<feColorMatrix in="SourceAlpha" type="matrix" values="0 0 0 0 0 0 0 0 0 0 0 0 0 0 0 0 0 0 127 0" result="hardAlpha"/>
<feOffset dx="40" dy="40"/>
<feGaussianBlur stdDeviation="34"/>
<feComposite in2="hardAlpha" operator="arithmetic" k2="-1" k3="1"/>
<feColorMatrix type="matrix" values="0 0 0 0 0.72549 0 0 0 0 0.992157 0 0 0 0 0.996078 0 0 0 1 0"/>
<feBlend mode="normal" in2="shape" result="effect1_innerShadow"/>
<feColorMatrix in="SourceAlpha" type="matrix" values="0 0 0 0 0 0 0 0 0 0 0 0 0 0 0 0 0 0 127 0" result="hardAlpha"/>
<feOffset dx="-40" dy="-40"/>
<feGaussianBlur stdDeviation="34"/>
<feComposite in2="hardAlpha" operator="arithmetic" k2="-1" k3="1"/>
<feColorMatrix type="matrix" values="0 0 0 0 0.72549 0 0 0 0 0.992157 0 0 0 0 0.996078 0 0 0 1 0"/>
<feBlend mode="normal" in2="effect1_innerShadow" result="effect2_innerShadow"/>
</filter>
</defs>
</svg>
