<svg width="457" height="371" viewBox="0 0 457 371" fill="none" xmlns="http://www.w3.org/2000/svg">
<path fill-rule="evenodd" clip-rule="evenodd" d="M209.028 5.50278C221.232 -1.83426 236.268 -1.83426 248.472 5.50278L315.778 45.9661C327.982 53.3032 335.5 66.8626 335.5 81.5367V162.463C335.5 177.137 327.982 190.697 315.778 198.034L248.472 238.497C236.268 245.834 221.232 245.834 209.028 238.497L141.722 198.034C129.518 190.697 122 177.137 122 162.463V81.5367C122 66.8626 129.518 53.3032 141.722 45.9661L209.028 5.50278ZM238.564 47.8316C232.491 44.1721 225.009 44.1721 218.936 47.8316L172.481 75.824C166.408 79.4835 162.667 86.2466 162.667 93.5656V149.55C162.667 156.869 166.408 163.632 172.481 167.292L218.936 195.284C225.009 198.944 232.491 198.944 238.564 195.284L285.019 167.292C291.092 163.632 294.833 156.869 294.833 149.55V93.5656C294.833 86.2466 291.092 79.4835 285.019 75.824L238.564 47.8316Z" fill="#10222F"/>
<path fill-rule="evenodd" clip-rule="evenodd" d="M209.028 5.50278C221.232 -1.83426 236.268 -1.83426 248.472 5.50278L315.778 45.9661C327.982 53.3032 335.5 66.8626 335.5 81.5367V162.463C335.5 177.137 327.982 190.697 315.778 198.034L248.472 238.497C236.268 245.834 221.232 245.834 209.028 238.497L141.722 198.034C129.518 190.697 122 177.137 122 162.463V81.5367C122 66.8626 129.518 53.3032 141.722 45.9661L209.028 5.50278ZM238.564 47.8316C232.491 44.1721 225.009 44.1721 218.936 47.8316L172.481 75.824C166.408 79.4835 162.667 86.2466 162.667 93.5656V149.55C162.667 156.869 166.408 163.632 172.481 167.292L218.936 195.284C225.009 198.944 232.491 198.944 238.564 195.284L285.019 167.292C291.092 163.632 294.833 156.869 294.833 149.55V93.5656C294.833 86.2466 291.092 79.4835 285.019 75.824L238.564 47.8316Z" fill="#0974D7"/>
<path d="M0 323.78C1.0127 338.613 13.5225 348.263 32.2871 348.263C51.5283 348.263 64.0381 338.315 64.0381 322.41C64.0381 310.257 56.9492 303.109 39.0186 299.177L29.4873 297.092C17.752 294.531 13.165 289.884 13.165 283.093C13.165 274.336 21.4453 269.094 32.168 269.094C43.3672 269.094 50.8135 274.873 51.7666 284.285H62.4893C62.0127 269.69 49.6221 259.444 32.4658 259.444C14.6543 259.444 2.14453 269.392 2.14453 283.57C2.14453 295.782 9.59082 303.585 26.8066 307.338L36.3379 309.423C48.252 312.044 53.0176 316.81 53.0176 324.018C53.0176 332.477 44.5586 338.613 32.8828 338.613C20.5518 338.613 11.9736 333.013 10.7227 323.78H0Z" fill="#243D4E"/>
<path d="M99.8398 292.803C109.609 292.803 116.103 300.19 116.341 310.555H82.6836C83.3389 300.25 90.1299 292.803 99.8398 292.803ZM116.103 329.082C114.375 334.919 108.597 338.911 100.733 338.911C89.5938 338.911 82.624 331.107 82.624 319.252V318.657H127.063V314.725C127.063 295.96 116.758 283.808 100.019 283.808C82.9219 283.808 71.9609 296.854 71.9609 316.095C71.9609 335.575 82.7432 347.906 100.495 347.906C114.018 347.906 124.502 339.923 126.289 329.082H116.103Z" fill="#243D4E"/>
<path d="M137.548 346.833H147.913V307.994C147.913 299.416 153.87 292.982 162.091 292.982C169.775 292.982 174.779 297.867 174.779 305.313V346.833H185.145V307.458C185.145 299.058 190.923 292.982 199.144 292.982C207.305 292.982 212.011 297.986 212.011 306.445V346.833H222.376V304.062C222.376 291.791 214.453 283.808 202.182 283.808C193.484 283.808 186.217 288.216 182.762 295.603H182.523C179.843 288.097 173.588 283.808 165.129 283.808C156.789 283.808 150.475 288.216 147.556 294.769H147.317V284.88H137.548V346.833Z" fill="#243D4E"/>
<path d="M260.799 338.196C250.136 338.196 243.166 329.499 243.166 315.619C243.166 301.739 250.136 292.922 260.799 292.922C271.581 292.922 278.789 301.977 278.789 315.619C278.789 329.26 271.581 338.196 260.799 338.196ZM261.156 370.185C278.253 370.185 289.154 360.356 289.154 345.583V284.88H279.266V295.305H279.087C274.977 288.097 267.709 283.808 258.952 283.808C242.928 283.808 232.562 296.199 232.562 315.619C232.562 334.86 242.928 347.31 258.714 347.31C267.411 347.31 274.738 342.902 278.551 336.17H278.789V345.94C278.789 355.173 272.296 361.369 261.573 361.369C253.829 361.369 247.693 357.616 245.668 351.957H235.005C236.732 362.5 247.515 370.185 261.156 370.185Z" fill="#243D4E"/>
<path d="M302.677 346.833H313.042V308.232C313.042 299.475 318.284 293.697 326.326 293.697C328.828 293.697 331.032 293.995 331.866 294.292V284.225C331.032 284.106 329.483 283.808 327.696 283.808C320.429 283.808 314.71 288.157 312.685 295.007H312.446V284.88H302.677V346.833Z" fill="#243D4E"/>
<path d="M362.188 292.803C371.957 292.803 378.45 300.19 378.688 310.555H345.031C345.687 300.25 352.478 292.803 362.188 292.803ZM378.45 329.082C376.723 334.919 370.944 338.911 363.081 338.911C351.941 338.911 344.972 331.107 344.972 319.252V318.657H389.411V314.725C389.411 295.96 379.105 283.808 362.366 283.808C345.27 283.808 334.309 296.854 334.309 316.095C334.309 335.575 345.091 347.906 362.843 347.906C376.365 347.906 386.85 339.923 388.637 329.082H378.45Z" fill="#243D4E"/>
<path d="M429.979 283.808C420.983 283.808 413.775 288.395 409.963 295.365H409.725V284.88H399.896V367.504H410.261V336.766H410.499C414.192 343.557 421.341 347.906 430.217 347.906C445.824 347.906 456.487 335.277 456.487 315.857C456.487 296.437 445.765 283.808 429.979 283.808ZM427.953 338.792C417.35 338.792 410.201 329.677 410.201 315.857C410.201 302.096 417.35 292.922 427.953 292.922C438.974 292.922 445.884 301.858 445.884 315.857C445.884 329.916 438.974 338.792 427.953 338.792Z" fill="#243D4E"/>
</svg>
